<?xml version="1.0" encoding="utf-8"?>
<!-- Generator: Adobe Illustrator 25.2.0, SVG Export Plug-In . SVG Version: 6.00 Build 0)  -->
<svg version="1.1" id="Layer_1" xmlns="http://www.w3.org/2000/svg" xmlns:xlink="http://www.w3.org/1999/xlink" x="0px" y="0px"
	 viewBox="0 0 456.4 149.6" style="enable-background:new 0 0 456.4 149.6;" xml:space="preserve">
<style type="text/css">
	.st0{opacity:0.5;fill:#230D09;}
	.st1{fill:#4B4716;}
	.st2{fill:#898625;}
	.st3{fill:#65681D;}
	.st4{opacity:0.7;fill:#55551B;}
	.st5{fill:#BFB530;}
	.st6{opacity:0.56;fill:#4B4716;}
</style>
<g>
	<g>
		<polygon class="st0" points="52.3,140.4 386.9,131.6 401.1,110 36,117.3 		"/>
		<polygon class="st1" points="43.4,33.5 410.2,21 410.2,33.5 405.1,40.8 400.8,48.7 400.6,66.5 412.5,65.8 412.1,88.6 406.6,95.2 
			401.1,101.1 401.1,109.9 393.8,121.8 44.9,128.9 36.1,116.8 52,114.6 48,85.9 42,80.8 32.2,73.9 31.6,60.2 45,60.4 		"/>
		<polygon class="st2" points="49.1,20.8 403.2,9.2 410.2,15.1 410.2,33.5 400.8,36.9 400.6,54.8 408.1,54.8 412.9,60.7 412.1,88.6 
			401.1,89.3 401.1,109.9 35.9,117.3 34.2,105.5 38.1,98.5 48.8,97.4 46.8,74.1 32.6,74.6 31.1,54 35.4,48.2 44.1,48.2 42.9,26.8 		
			"/>
		<path class="st3" d="M400.6,54.6c-7.7-0.1-15.4-0.3-23.1-0.4c-14.6-0.2-28.8-0.8-43.4,0c8.3,25.1-20.6,27.1-31.1,23
			c-19.2-7.5,17-19.9,21.8-24.4c-22.5-1.5-45.2-0.3-67.7-0.6c-5.2-0.1-10.4,0-15.6,0.1c-38.4,0.4-78.8,12.5-116.9,2.7
			c7.2,28.2-41.2,20.2-37.8,8.6c1.9-6.6,9.4-2.9,12.6-6.5c-6.2-8.3-44-5.9-60.7-6.9c-4.8-0.3-7.5,4.3-7.4,5.4
			c0.5,9.9,1.4,19.1,1.4,19.1l14.2-0.5l2.1,23.3l-10.1,1l-4.1,6.3l1.3,12.6l365.2-7.4V89.3l11-0.7l0.8-27.9l-4.9-5.9h-7.4
			L400.6,54.6z"/>
		<path class="st4" d="M398.3,86.7c-4.6-0.7-38.2,17-37,5.6c1.4-14.3,27.2-9.4,33.8-15.1c-0.9-1.9-2.3-2.6-3.9-3.4
			c-16.6-8-41.2-4.2-56.7,8.1c-16.6,13.2-18.8,22.6-38.3,8c-6.1-4.6-16-16-21.4-17.4c-20-5.3-40.5,18.9-60.8,16.1
			c-3.3-21.8-44.2,14.6-56.4,18c12.1-9,21.3-23.1,32.9-34c-11.9,0.6-81.3,29.4-87,8.1c0.4,1.6,0.3,4.8,0.8,6.3
			C95.8,87.5,89,79.3,81,76.1c-7.6-3.1-15.5,3.3-22.9,0.7c8.4,2.9,28.3,3.6,32.9,15.5c5.6,14.4-24.7,10.2-29.1,9.8
			c-6.9-0.6-13.9-2.2-20.9-2.9c-2.3-0.2-6.7,6.3-6.7,6.3c0.5,6.6,1.5,11.8,1.7,11.8c0.6,0,1.1,0,1.7,0c15.1-0.3,30.1-0.6,45.2-0.9
			c30.3-0.6,60.6-1.2,90.9-1.8c34.9-0.7,69.8-1.4,104.7-2.1c28.8-0.6,57.6-1.1,86.4-1.7c12.1-0.2,24.2-0.6,36.3-0.7
			c-0.5-8,0-21.9,0-21.9C400.4,87.3,399.5,86.9,398.3,86.7z"/>
		<g>
			<polygon class="st5" points="48.3,97.5 38.7,98.4 34.6,104.7 48.8,103.3 			"/>
			<polygon class="st5" points="400.7,54.8 400.6,60.7 412.9,60.7 408.1,54.8 			"/>
			<polygon class="st5" points="44.1,54 43.7,48.2 35.4,48.2 31.1,54 			"/>
			<polygon class="st5" points="410.2,15.1 403.2,9.2 49.1,20.8 42.9,26.8 			"/>
		</g>
	</g>
	<g>
		<path class="st6" d="M390.4,83.5c0,3.5-2.9,6.4-6.4,6.4c-3.5,0-6.4-2.9-6.4-6.4s2.9-6.4,6.4-6.4C387.5,77.1,390.4,79.9,390.4,83.5
			z"/>
		<path class="st6" d="M376.2,96.7c0,1.8-1.4,3.2-3.2,3.2c-1.8,0-3.2-1.4-3.2-3.2s1.4-3.2,3.2-3.2C374.8,93.5,376.2,94.9,376.2,96.7
			z"/>
		<circle class="st6" cx="384.8" cy="65.1" r="5.1"/>
	</g>
	<g>
		<circle class="st6" cx="63.1" cy="33.5" r="3.7"/>
		<circle class="st6" cx="76.4" cy="30.9" r="4.4"/>
		<circle class="st6" cx="59.8" cy="43.8" r="2.9"/>
		<circle class="st6" cx="72.5" cy="84.7" r="7.2"/>
		<circle class="st6" cx="90.9" cy="94.3" r="3.9"/>
	</g>
	<g>
		<path class="st5" d="M98.3,45.2c0,5.1-4.2,9.3-9.3,9.3c-5.1,0-9.3-4.2-9.3-9.3s4.2-9.3,9.3-9.3C94.1,35.9,98.3,40.1,98.3,45.2z"/>
		<path class="st5" d="M77.2,56.3c0,2.6-2.1,4.7-4.7,4.7c-2.6,0-4.7-2.1-4.7-4.7c0-2.6,2.1-4.7,4.7-4.7
			C75.1,51.6,77.2,53.7,77.2,56.3z"/>
	</g>
	<g>
		<path class="st5" d="M387.5,26.4c0,4.2-3.4,7.6-7.6,7.6c-4.2,0-7.6-3.4-7.6-7.6c0-4.2,3.4-7.6,7.6-7.6
			C384.1,18.8,387.5,22.2,387.5,26.4z"/>
		<circle class="st5" cx="398.5" cy="26.8" r="3.7"/>
		<path class="st5" d="M361.5,41.5c0,4.2-3.4,7.6-7.6,7.6s-7.6-3.4-7.6-7.6s3.4-7.6,7.6-7.6S361.5,37.4,361.5,41.5z"/>
	</g>
</g>
</svg>
