<svg xmlns="http://www.w3.org/2000/svg" xmlns:xlink="http://www.w3.org/1999/xlink" viewBox="0 0 456.41 149.57"><defs><style>.cls-1{isolation:isolate;}.cls-2{fill:url(#linear-gradient);}.cls-19,.cls-3{fill:#803414;}.cls-4{fill:#dd9650;opacity:0.67;}.cls-11,.cls-5{fill:#5c2316;}.cls-5{opacity:0.56;}.cls-6{fill:#451a11;}.cls-7{fill:#bc6320;}.cls-8{fill:#ffc46b;opacity:0.94;}.cls-9{fill:url(#linear-gradient-2);}.cls-10{fill:#843418;}.cls-12,.cls-14{fill:#fce7c8;}.cls-12,.cls-13{opacity:0.88;}.cls-15{fill:url(#linear-gradient-3);}.cls-16{opacity:0.85;mix-blend-mode:multiply;fill:url(#linear-gradient-4);}.cls-17{opacity:0.71;fill:url(#linear-gradient-5);}.cls-18{opacity:0.7;mix-blend-mode:screen;fill:url(#linear-gradient-6);}.cls-19,.cls-22{opacity:0.3;}.cls-20{fill:#fcae00;}.cls-21{fill:#ffdd4d;}.cls-22,.cls-25,.cls-28{fill:#fff;}.cls-23{fill:#db9405;}.cls-24{fill:url(#linear-gradient-7);}.cls-26{fill:#2b69ad;}.cls-27{fill:#df653b;}.cls-28{opacity:0.27;}</style><linearGradient id="linear-gradient" x1="242.68" y1="8.93" x2="242.68" y2="143.3" gradientUnits="userSpaceOnUse"><stop offset="0" stop-color="#923a19"/><stop offset="0.47" stop-color="#5c2316"/><stop offset="0.99" stop-color="#451a11"/></linearGradient><linearGradient id="linear-gradient-2" x1="242.68" y1="97.87" x2="242.68" y2="43.49" gradientUnits="userSpaceOnUse"><stop offset="0" stop-color="#ab451a"/><stop offset="0.57" stop-color="#7c3118"/><stop offset="1" stop-color="#5c2316"/></linearGradient><linearGradient id="linear-gradient-3" x1="62.61" y1="71.24" x2="422.83" y2="71.24" gradientUnits="userSpaceOnUse"><stop offset="0.01" stop-color="#ab451a"/><stop offset="0.15" stop-color="#ca7426"/><stop offset="0.33" stop-color="#f5b638"/><stop offset="0.5" stop-color="#f8bd29"/><stop offset="0.83" stop-color="#ffcf01"/><stop offset="0.86" stop-color="#fed50b"/><stop offset="1" stop-color="#f9ec31"/></linearGradient><linearGradient id="linear-gradient-4" x1="242.72" y1="98.6" x2="242.72" y2="48.59" gradientUnits="userSpaceOnUse"><stop offset="0" stop-color="#ab451a"/><stop offset="0.06" stop-color="#ba6542"/><stop offset="0.14" stop-color="#ca896e"/><stop offset="0.23" stop-color="#d8a995"/><stop offset="0.32" stop-color="#e4c4b6"/><stop offset="0.41" stop-color="#eed9d1"/><stop offset="0.52" stop-color="#f6eae5"/><stop offset="0.63" stop-color="#fbf6f4"/><stop offset="0.77" stop-color="#fefdfc"/><stop offset="1" stop-color="#fff"/></linearGradient><linearGradient id="linear-gradient-5" x1="62.61" y1="83.52" x2="422.83" y2="83.52" gradientUnits="userSpaceOnUse"><stop offset="0" stop-color="#f3901d"/><stop offset="0.79" stop-color="#ffcf01"/><stop offset="0.84" stop-color="#fed50b"/><stop offset="1" stop-color="#f9ec31"/></linearGradient><linearGradient id="linear-gradient-6" x1="242.72" y1="50.92" x2="242.72" y2="70.14" gradientUnits="userSpaceOnUse"><stop offset="0.12" stop-color="#f9f2a0"/><stop offset="0.27" stop-color="#d7d08a"/><stop offset="0.61" stop-color="#807953"/><stop offset="1" stop-color="#130c0e"/></linearGradient><linearGradient id="linear-gradient-7" x1="7.17" y1="86.65" x2="117.88" y2="86.65" xlink:href="#linear-gradient"/></defs><g class="cls-1"><g id="Layer_1" data-name="Layer 1"><path class="cls-2" d="M74.56,137.48l-1.4-.53c-17.4-6.53-30.52-32.08-30.52-59.43,0-26.26,12.55-49.32,30.52-56.06l1.4-.52H410.79l1.4.52c18,6.74,30.52,29.8,30.52,56.06,0,27.35-13.12,52.9-30.52,59.43l-1.4.53Z"/><path class="cls-3" d="M75.15,130.72l-.83-.31c-15.92-6-27-29.71-27-52.89S58.4,34,74.32,28l.83-.31H410.21L411,28c15.91,6,27,26.34,27,49.52S427,124.43,411,130.41l-.82.31Z"/><path class="cls-4" d="M74.32,28l.83-.31H410.21L411,28c7.06,2.66,16.51,9.68,20.53,19-7.66-4.66-12.47,2.82-12.13,14.25-6.74,1.69-13.68-1.13-20.55.37C378.53,66,358.52,66,338,66c-31.63,0-63.52,1.88-95.17,3-20.37.7-40.77-.34-61.18-.38-24.69,0-49.81,2.21-74.39-1.57A142.41,142.41,0,0,1,71.46,56.6C68,55.08,60,53.08,57.9,47.83,53.38,36.31,69.37,29.86,74.32,28Z"/><path class="cls-5" d="M75.15,130.72l-.83-.31c-5.29-2-10.11-6-14.15-11.3-3.45-4.54-5.9-13.33-9.89-15.93,12.82-31.34,46.58-28.57,68-30.2,45.81-3.5,91.73-2.12,137.56-.69a993.23,993.23,0,0,1,106.4,9.18c12,1.68,26.94-2.69,38.34,3.26,7.1,3.71,11.77,6.37,19.56,3.44-3.55,7.34-7.74,32.51,2,33.81.47,2.56-6.69,10.71-11.13,8.43l-.82.31Z"/><path class="cls-6" d="M76,115.93c-12.47-4.52-21.75-20-21.75-38S63.53,44.47,76,40H409.35c12.47,4.52,21.75,20,21.75,38s-9.28,33.47-21.75,38Z"/><path class="cls-7" d="M76,110.44c-12.47-4.52-21.75-20-21.75-38S63.53,39,76,34.45H409.35c12.47,4.53,21.75,20,21.75,38s-9.28,33.47-21.75,38Z"/><path class="cls-8" d="M76,37.83H409.35c12.08,4.38,21.13,19,21.69,36.31,0-.57.06-1.12.06-1.69,0-18-9.28-33.47-21.75-38H76c-12.47,4.53-21.75,20-21.75,38,0,.57,0,1.12.06,1.69C54.87,56.85,63.92,42.21,76,37.83Z"/><path class="cls-8" d="M424.13,75.83c0-15.87-9.7-28.79-21.75-29.18v0H83v0C70.93,47,61.22,60,61.22,75.83S70.93,104.62,83,105v0H402.38v0C414.43,104.62,424.13,91.69,424.13,75.83Z"/><path class="cls-9" d="M424.13,72.45c0-15.87-9.7-28.79-21.75-29.18v0H83v0c-12,.39-21.75,13.31-21.75,29.18S70.93,101.24,83,101.63v0H402.38v0C414.43,101.24,424.13,88.31,424.13,72.45Z"/><path class="cls-10" d="M424.13,72.45c0-.83,0-1.63-.09-2.44-1,15-10.54,26.78-22.21,26.78H83.53C71.85,96.79,62.26,85,61.31,70c-.05.81-.09,1.61-.09,2.44,0,15.86,9.71,28.79,21.75,29.18v0H402.38v0C414.43,101.24,424.13,88.31,424.13,72.45Z"/><path class="cls-11" d="M402.38,43.27v0H83v0c-12,.39-21.75,13.31-21.75,29.18,0,1.24.08,2.45.19,3.65,1.38-14.39,10.76-25.57,22.12-25.57h318.3c11.35,0,20.73,11.18,22.11,25.57a36.54,36.54,0,0,0,.19-3.65C424.13,56.58,414.43,43.66,402.38,43.27Z"/><path class="cls-6" d="M409.62,112c.69,7,3.24,16.53-.18,24,4-3.26,8.19-6.29,12.27-9.69-6.09,1.06-10.24-12.67-6-18.83A7.78,7.78,0,0,1,409,112Z"/><path class="cls-12" d="M421,33.72c.27,2.48-.61,5.63-2.53,7.05-.14,0-.15,0,0,0,3.32,1.69,3.94,4.85,5.41,6.44a5,5,0,0,1,4.61-6.14c-2.21-2.32-4.87-6.73-7.48-7.62Z"/><g class="cls-13"><path class="cls-14" d="M419.93,41.69c-.05.09-.89-1-2.78-2.46a33.89,33.89,0,0,0-3.6-2.34c-.73-.4-1.52-.8-2.37-1.19l-1.33-.57a2.53,2.53,0,0,0-.62-.2h-.75L374,35.35l-113.38.37c-88.38,0-160.47-.57-160.47-1.27s72.09-1.26,160.47-1.26L374,33.56l34.45.4h.75a2.59,2.59,0,0,1,.79.27l1.34.63c.86.43,1.66.88,2.38,1.33a28.19,28.19,0,0,1,3.58,2.59A11.1,11.1,0,0,1,419.93,41.69Z"/></g><path class="cls-11" d="M404.78,119.8c0-5.21-5-3.31-6.13-.52C396.08,125.85,404.82,125.46,404.78,119.8Z"/><path class="cls-11" d="M391.22,127.35a4.27,4.27,0,0,0,1.7-2.18c3.76-10.27-11.24-2.93-13.52-.85-1,.92,6.28,4,6.81,3.94C387.59,128.25,389.66,128.34,391.22,127.35Z"/><path class="cls-11" d="M185.91,120.65c0-5.22-5-3.32-6.13-.53C177.21,126.69,186,126.31,185.91,120.65Z"/><path class="cls-11" d="M172.35,128.19a4.19,4.19,0,0,0,1.7-2.18c3.76-10.26-11.24-2.92-13.53-.84-1,.91,6.29,3.94,6.82,3.94C168.72,129.09,170.79,129.19,172.35,128.19Z"/><path class="cls-11" d="M345.43,120.53c-.09,0-.4-.39-.59-.46-.23,3.78,2.44,9.37,3.33,3.5.52-3.46-2.39-6.6-3.52-2.47Z"/><path class="cls-11" d="M350.93,124.34c2,3.64,12.24,6.59,14.19,1.4,2.53-6.75-7.11-7.09-9.45-6.33s-3.64,2.08-4.93,5Z"/><path class="cls-11" d="M368.65,122.78c-.71,1.31.08,5.67,2.23,2.93,1.52-1.93.3-6.16-1.65-3.77Z"/><path class="cls-11" d="M330.37,122.16c-.89,4.23,3.85,6.29,5.27,2.79,1.7-4.23-3.32-6.14-4.69-2.37Z"/><path class="cls-11" d="M305.41,119.62c-11.43.7,4.36,14.44.87-.42Z"/><path class="cls-11" d="M319.05,120.89c-.56,5.33,6.73,10.23,7.31,3.48.42-4.91-5.6-7.89-7-3.48Z"/><path class="cls-11" d="M290.26,121.81c.05-8.34-24.1,3.92-25.17,2C267.88,129.84,290.22,129.63,290.26,121.81Z"/><path class="cls-11" d="M105.11,121.31c.85,5.55,11,5.1,9-1.42-1.53-5.15-8.45-3.09-8.74,1.84Z"/><path class="cls-11" d="M120.21,122.58c.3,7.82,11.32,5,8.64-1.65-1.36-3.36-9.57-3.31-8.35,2.49Z"/><path class="cls-11" d="M95.24,121.31c-4.39,3.07,3.23,6.2,4.09,1.22s-3.81-3.74-4.67-.37Z"/><path class="cls-11" d="M136.46,121.73c1.29,8,18.48,5.56,21.23.45-2.77-5.64-17.88-4.28-21.52-.87Z"/><path class="cls-11" d="M195.1,120.89c-1.39,4.43,2.75,9.45,4.33,4,1.45-4.94-2.87-7.69-4.33-1.91Z"/><path class="cls-11" d="M228.44,125.05c-3.71.31-13.94,3.38-16.9-.66-3.57-4.89,4.6-5.41,6.39-5.3a16.45,16.45,0,0,1,6,1.45C224.26,120.72,229.35,125,228.44,125.05Z"/><path class="cls-11" d="M245,121.31c-2.54,10,8.51,9.09,8.66,2,.13-5.87-5.76-4.91-8.37-3.28Z"/><path class="cls-11" d="M428.64,104.12c-2.36-1.94-7.48,5.2-7.93,8.52-.6,4.38-.12,7.49,3.57,5.24,2-1.19,6.5-9.65,5-12.95A2.27,2.27,0,0,0,428.64,104.12Z"/><path class="cls-15" d="M402.75,45.68v-.1H82.69v.1c-11.2,1-20.08,12.65-20.08,26.85C62.61,86,71.39,96.9,82.19,96.9H403.25C414,96.9,422.83,86,422.83,72.53,422.83,58.33,414,46.69,402.75,45.68Z"/><path class="cls-16" d="M402.75,45.68v-.1H82.69v.1c-11.2,1-20.08,12.65-20.08,26.85C62.61,86,71.39,96.9,82.19,96.9H403.25C414,96.9,422.83,86,422.83,72.53,422.83,58.33,414,46.69,402.75,45.68Z"/><path class="cls-17" d="M403.25,92.24H82.19C72,92.24,63.63,82.52,62.7,70.15c-.05.78-.09,1.58-.09,2.38C62.61,86,71.39,96.9,82.19,96.9H403.25C414,96.9,422.83,86,422.83,72.53c0-.8,0-1.6-.1-2.38C421.81,82.52,413.43,92.24,403.25,92.24Z"/><path class="cls-18" d="M401.17,50.23H82.69v.1c-9.43.85-17.19,9.25-19.41,20.36H422.16c-2.22-11.11-10-19.51-19.41-20.36v-.1Z"/><path class="cls-3" d="M74.91,18.56A12.27,12.27,0,0,0,62.65,6.27h0a12.28,12.28,0,0,0-3.28,24.11,12.54,12.54,0,0,0,3.15.45h.13a12.28,12.28,0,0,0,12.3-12.27Zm-12.3,9.13a9.14,9.14,0,1,1,9.16-9.13A9.14,9.14,0,0,1,62.61,27.69Z"/><rect class="cls-3" x="57.48" y="27.62" width="10.25" height="6.57" transform="translate(31.61 93.47) rotate(-89.91)"/><path class="cls-3" d="M68.85,18.52V25a.8.8,0,0,1-.35.73.34.34,0,0,1-.17.05l-11.41,0h0a.41.41,0,0,1-.19-.09.9.9,0,0,1-.28-.69V18.5a.87.87,0,0,1,.29-.69.34.34,0,0,1,.19-.09h0l11.41,0a.41.41,0,0,1,.18.05A.81.81,0,0,1,68.85,18.52Z"/><path class="cls-19" d="M68.85,18.52V25a.8.8,0,0,1-.35.73.34.34,0,0,1-.17.05H65.9l0,10.26H62.47l0-18.3h5.83a.41.41,0,0,1,.18.05A.81.81,0,0,1,68.85,18.52Z"/><rect class="cls-3" x="61.44" y="23.67" width="2.34" height="6.57" transform="translate(35.57 89.52) rotate(-89.91)"/><polygon class="cls-20" points="89.12 32.01 88.39 33.73 85.85 39.7 82.8 38.41 79.81 37.13 82.35 31.16 83.08 29.44 86.1 30.73 89.12 32.01"/><path class="cls-21" d="M93.06,27l-3,7.11a.28.28,0,0,1-.37.15l-1.27-.54-3-1.29-3-1.28-1.28-.55a.28.28,0,0,1-.15-.37l3-7.11a.29.29,0,0,1,.37-.15l4.31,1.84,4.28,1.82A.28.28,0,0,1,93.06,27Z"/><path class="cls-22" d="M93.06,27l-3,7.11a.28.28,0,0,1-.37.15l-1.27-.54-2.54,6-3-1.29,2.56-6,.74-1.72,2.53-5.9,4.28,1.82A.28.28,0,0,1,93.06,27Z"/><polygon class="cls-23" points="82.35 31.16 88.39 33.73 87.61 35.55 81.56 33.01 82.35 31.16"/><path class="cls-24" d="M117.88,86.73a55.37,55.37,0,0,1-83,47.91c-.39-.23-.77-.45-1.15-.69A55.36,55.36,0,0,1,59.32,31.39c1-.06,2.1-.09,3.16-.09h.13c1.1,0,2.2,0,3.28.1a54.83,54.83,0,0,1,15.06,3c1,.36,2,.75,3,1.18h0c1,.43,2,.88,3,1.37s2,1,3,1.59l.36.22A55.32,55.32,0,0,1,117.88,86.73Z"/><path class="cls-25" d="M109.11,86.72A46.6,46.6,0,0,1,39.28,127h0A46.6,46.6,0,0,1,22.2,63.32h0a46.59,46.59,0,0,1,86.91,23.4Z"/><rect class="cls-26" x="61.49" y="42.52" width="2.18" height="8.45" transform="translate(0.07 -0.09) rotate(0.09)"/><rect class="cls-26" x="51.16" y="43.87" width="2.18" height="8.45" transform="translate(-10.62 15.07) rotate(-14.91)"/><rect class="cls-26" x="41.53" y="47.84" width="2.18" height="8.45" transform="translate(-20.29 28.19) rotate(-29.91)"/><rect class="cls-26" x="33.26" y="54.17" width="2.18" height="8.45" transform="translate(-31.2 41.29) rotate(-44.91)"/><rect class="cls-26" x="26.91" y="62.42" width="2.18" height="8.45" transform="translate(-43.71 57.46) rotate(-59.91)"/><rect class="cls-26" x="22.91" y="72.04" width="2.18" height="8.45" transform="translate(-55.89 79.59) rotate(-74.91)"/><rect class="cls-26" x="21.53" y="82.37" width="2.18" height="8.45" transform="translate(-64 109.08) rotate(-89.91)"/><rect class="cls-26" x="22.87" y="92.7" width="2.18" height="8.45" transform="translate(-63.52 145.02) rotate(-104.91)"/><rect class="cls-26" x="26.85" y="102.33" width="2.18" height="8.45" transform="translate(-50.49 183.9) rotate(-119.91)"/><rect class="cls-26" x="33.18" y="110.6" width="2.18" height="8.45" transform="translate(-22.86 220.16) rotate(-134.91)"/><rect class="cls-26" x="41.43" y="116.95" width="2.18" height="8.45" transform="translate(18.57 247.35) rotate(-149.91)"/><rect class="cls-26" x="51.05" y="120.95" width="2.18" height="8.45" transform="translate(69.9 259.61) rotate(-164.91)"/><rect class="cls-26" x="61.37" y="122.33" width="2.18" height="8.45" transform="translate(124.74 253.2) rotate(-179.91)"/><rect class="cls-26" x="71.7" y="120.98" width="2.18" height="8.45" transform="translate(175.36 227.47) rotate(165.09)"/><rect class="cls-26" x="81.33" y="117.01" width="2.18" height="8.45" transform="translate(214.33 185.22) rotate(150.09)"/><rect class="cls-26" x="89.61" y="110.68" width="2.18" height="8.45" transform="translate(236.06 132.25) rotate(135.09)"/><rect class="cls-26" x="95.96" y="102.43" width="2.18" height="8.45" transform="translate(237.99 76.15) rotate(120.09)"/><rect class="cls-26" x="99.96" y="92.81" width="2.18" height="8.45" transform="translate(221.05 24.72) rotate(105.09)"/><rect class="cls-26" x="101.34" y="82.49" width="2.18" height="8.45" transform="translate(189.29 -15.59) rotate(90.09)"/><rect class="cls-26" x="99.99" y="72.16" width="2.18" height="8.45" transform="translate(148.88 -40.95) rotate(75.09)"/><rect class="cls-26" x="96.02" y="62.53" width="2.18" height="8.45" transform="translate(106.54 -50.71) rotate(60.09)"/><rect class="cls-26" x="89.69" y="54.25" width="2.18" height="8.45" transform="translate(68.1 -47.1) rotate(45.09)"/><rect class="cls-26" x="81.44" y="47.9" width="2.18" height="8.45" transform="translate(37.25 -34.35) rotate(30.09)"/><rect class="cls-26" x="71.82" y="43.9" width="2.18" height="8.45" transform="translate(15.04 -17.32) rotate(15.09)"/><path class="cls-27" d="M64.08,89.68h0a3.87,3.87,0,0,1-5.19-2.16L45.69,47.38,66,84.37A3.87,3.87,0,0,1,64.08,89.68Z"/><circle class="cls-25" cx="62.62" cy="86.27" r="2.38" transform="translate(-43.1 72.55) rotate(-46.63)"/><path class="cls-27" d="M67.36,97.3h0a2.4,2.4,0,0,1-3.18-1.25l-2.8-6.44,4.43-1.93,2.8,6.44A2.4,2.4,0,0,1,67.36,97.3Z"/><path class="cls-28" d="M117.88,86.73a55.37,55.37,0,0,1-83,47.91c-.39-.23-.77-.45-1.15-.69l3.51-5.89,1.3-2.19,4.5-7.57L60.48,89,61.12,88h0L63,84.74l1.12-1.88L81,54.46l4.5-7.57,1.31-2.2,3.51-5.89A55.32,55.32,0,0,1,117.88,86.73Z"/></g></g></svg>